HIERARCHY
ROOT Hips
{
	OFFSET 0.000000 100.481300 0.000000
	CHANNELS 6 Xposition Yposition Zposition Xrotation Yrotation Zrotation
	JOINT Spine
	{
		OFFSET -0.279200 12.230698 -2.892100
		CHANNELS 3 Xrotation Yrotation Zrotation
		JOINT Spine1
		{
			OFFSET -0.325700 14.269203 -3.374200
			CHANNELS 3 Xrotation Yrotation Zrotation
			JOINT Spine2
			{
				OFFSET -0.372300 16.307602 -0.352600
				CHANNELS 3 Xrotation Yrotation Zrotation
				JOINT Neck
				{
					OFFSET -0.418800 17.814194 8.416900
					CHANNELS 3 Xrotation Yrotation Zrotation
					JOINT Head
					{
						OFFSET 0.000000 7.031097 3.806800
						CHANNELS 3 Xrotation Yrotation Zrotation
						JOINT HeadTop_End
						{
							OFFSET 0.000000 24.646606 12.978600
							CHANNELS 3 Xrotation Yrotation Zrotation
							End Site
							{
								OFFSET 0.000000 27.854965 0.000000
							}
						}
					}
				}
				JOINT LeftShoulder
				{
					OFFSET 16.952999 14.495407 -7.737500
					CHANNELS 3 Xrotation Yrotation Zrotation
					JOINT LeftArm
					{
						OFFSET 9.308998 -2.777710 0.208600
						CHANNELS 3 Xrotation Yrotation Zrotation
						JOINT LeftForeArm
						{
							OFFSET 29.972298 0.000000 0.000000
							CHANNELS 3 Xrotation Yrotation Zrotation
							JOINT LeftHand
							{
								OFFSET 26.026505 0.000000 0.000000
								CHANNELS 3 Xrotation Yrotation Zrotation
								JOINT LeftHandThumb1
								{
									OFFSET 12.240501 -7.147949 9.207150
									CHANNELS 3 Xrotation Yrotation Zrotation
									JOINT LeftHandThumb2
									{
										OFFSET 4.138618 -2.389435 2.389433
										CHANNELS 3 Xrotation Yrotation Zrotation
										JOINT LeftHandThumb3
										{
											OFFSET 2.726913 -1.574387 1.574386
											CHANNELS 3 Xrotation Yrotation Zrotation
											JOINT LeftHandThumb4
											{
												OFFSET 3.941010 -2.275345 2.275342
												CHANNELS 3 Xrotation Yrotation Zrotation
												End Site
												{
													OFFSET -0.005798 5.087799 0.009903
												}
											}
										}
									}
								}
								JOINT LeftHandIndex1
								{
									OFFSET 24.424698 -1.985611 5.953459
									CHANNELS 3 Xrotation Yrotation Zrotation
									JOINT LeftHandIndex2
									{
										OFFSET 6.426697 0.000000 0.000000
										CHANNELS 3 Xrotation Yrotation Zrotation
										JOINT LeftHandIndex3
										{
											OFFSET 5.337898 0.000000 0.000000
											CHANNELS 3 Xrotation Yrotation Zrotation
											JOINT LeftHandIndex4
											{
												OFFSET 4.409401 0.000000 0.000000
												CHANNELS 3 Xrotation Yrotation Zrotation
												End Site
												{
													OFFSET 0.000000 4.409363 0.014373
												}
											}
										}
									}
								}
								JOINT LeftHandMiddle1
								{
									OFFSET 23.810104 0.000000 0.000000
									CHANNELS 3 Xrotation Yrotation Zrotation
									JOINT LeftHandMiddle2
									{
										OFFSET 7.176498 0.000000 0.000000
										CHANNELS 3 Xrotation Yrotation Zrotation
										JOINT LeftHandMiddle3
										{
											OFFSET 6.774902 0.000000 0.000000
											CHANNELS 3 Xrotation Yrotation Zrotation
											JOINT LeftHandMiddle4
											{
												OFFSET 5.403328 0.000000 0.000000
												CHANNELS 3 Xrotation Yrotation Zrotation
												End Site
												{
													OFFSET -0.027702 5.403244 0.017414
												}
											}
										}
									}
								}
								JOINT LeftHandRing1
								{
									OFFSET 22.908401 -0.839279 -6.020567
									CHANNELS 3 Xrotation Yrotation Zrotation
									JOINT LeftHandRing2
									{
										OFFSET 6.337502 0.000000 0.000000
										CHANNELS 3 Xrotation Yrotation Zrotation
										JOINT LeftHandRing3
										{
											OFFSET 5.779297 0.000000 0.000000
											CHANNELS 3 Xrotation Yrotation Zrotation
											JOINT LeftHandRing4
											{
												OFFSET 4.965698 0.000000 0.000000
												CHANNELS 3 Xrotation Yrotation Zrotation
												End Site
												{
													OFFSET 0.000000 4.965668 0.016186
												}
											}
										}
									}
								}
								JOINT LeftHandPinky1
								{
									OFFSET 20.037003 -1.530319 -10.950146
									CHANNELS 3 Xrotation Yrotation Zrotation
									JOINT LeftHandPinky2
									{
										OFFSET 5.254700 0.000000 0.000000
										CHANNELS 3 Xrotation Yrotation Zrotation
										JOINT LeftHandPinky3
										{
											OFFSET 4.810204 0.000000 0.000000
											CHANNELS 3 Xrotation Yrotation Zrotation
											JOINT LeftHandPinky4
											{
												OFFSET 3.647202 0.000000 0.000000
												CHANNELS 3 Xrotation Yrotation Zrotation
												End Site
												{
													OFFSET 0.000000 3.647186 0.011889
												}
											}
										}
									}
								}
							}
						}
					}
				}
				JOINT RightShoulder
				{
					OFFSET -15.141001 14.495407 -7.737500
					CHANNELS 3 Xrotation Yrotation Zrotation
					JOINT RightArm
					{
						OFFSET -9.308998 -2.777710 0.208500
						CHANNELS 3 Xrotation Yrotation Zrotation
						JOINT RightForeArm
						{
							OFFSET -29.972300 0.000000 0.000000
							CHANNELS 3 Xrotation Yrotation Zrotation
							JOINT RightHand
							{
								OFFSET -26.026505 0.000000 0.000000
								CHANNELS 3 Xrotation Yrotation Zrotation
								JOINT RightHandThumb1
								{
									OFFSET -12.240601 -7.148026 9.207092
									CHANNELS 3 Xrotation Yrotation Zrotation
									JOINT RightHandThumb2
									{
										OFFSET -4.138618 -2.389435 2.389433
										CHANNELS 3 Xrotation Yrotation Zrotation
										JOINT RightHandThumb3
										{
											OFFSET -2.726974 -1.574417 1.574421
											CHANNELS 3 Xrotation Yrotation Zrotation
											JOINT RightHandThumb4
											{
												OFFSET -3.941010 -2.275345 2.275343
												CHANNELS 3 Xrotation Yrotation Zrotation
												End Site
												{
													OFFSET 0.005814 5.087799 0.009927
												}
											}
										}
									}
								}
								JOINT RightHandIndex1
								{
									OFFSET -24.424698 -1.985657 5.953444
									CHANNELS 3 Xrotation Yrotation Zrotation
									JOINT RightHandIndex2
									{
										OFFSET -6.426697 0.000000 0.000000
										CHANNELS 3 Xrotation Yrotation Zrotation
										JOINT RightHandIndex3
										{
											OFFSET -5.337898 0.000000 0.000000
											CHANNELS 3 Xrotation Yrotation Zrotation
											JOINT RightHandIndex4
											{
												OFFSET -4.409401 0.000000 0.000000
												CHANNELS 3 Xrotation Yrotation Zrotation
												End Site
												{
													OFFSET 0.000000 4.409363 0.014408
												}
											}
										}
									}
								}
								JOINT RightHandMiddle1
								{
									OFFSET -23.810097 0.000000 0.000000
									CHANNELS 3 Xrotation Yrotation Zrotation
									JOINT RightHandMiddle2
									{
										OFFSET -7.176498 0.000000 0.000000
										CHANNELS 3 Xrotation Yrotation Zrotation
										JOINT RightHandMiddle3
										{
											OFFSET -6.774902 0.000000 0.000000
											CHANNELS 3 Xrotation Yrotation Zrotation
											JOINT RightHandMiddle4
											{
												OFFSET -5.403328 0.000000 0.000000
												CHANNELS 3 Xrotation Yrotation Zrotation
												End Site
												{
													OFFSET 0.027702 5.403244 0.017457
												}
											}
										}
									}
								}
								JOINT RightHandRing1
								{
									OFFSET -22.908302 -0.839325 -6.020576
									CHANNELS 3 Xrotation Yrotation Zrotation
									JOINT RightHandRing2
									{
										OFFSET -6.337502 0.000000 0.000000
										CHANNELS 3 Xrotation Yrotation Zrotation
										JOINT RightHandRing3
										{
											OFFSET -5.779297 0.000000 0.000000
											CHANNELS 3 Xrotation Yrotation Zrotation
											JOINT RightHandRing4
											{
												OFFSET -4.965698 0.000000 0.000000
												CHANNELS 3 Xrotation Yrotation Zrotation
												End Site
												{
													OFFSET 0.000000 4.965668 0.016226
												}
											}
										}
									}
								}
								JOINT RightHandPinky1
								{
									OFFSET -20.037003 -1.530334 -10.950259
									CHANNELS 3 Xrotation Yrotation Zrotation
									JOINT RightHandPinky2
									{
										OFFSET -5.254700 0.000000 0.000000
										CHANNELS 3 Xrotation Yrotation Zrotation
										JOINT RightHandPinky3
										{
											OFFSET -4.810204 0.000000 0.000000
											CHANNELS 3 Xrotation Yrotation Zrotation
											JOINT RightHandPinky4
											{
												OFFSET -3.647202 0.000000 0.000000
												CHANNELS 3 Xrotation Yrotation Zrotation
												End Site
												{
													OFFSET 0.000000 3.647186 0.011917
												}
											}
										}
									}
								}
							}
						}
					}
				}
			}
		}
	}
	JOINT LeftUpLeg
	{
		OFFSET 15.427100 -6.655098 0.678600
		CHANNELS 3 Xrotation Yrotation Zrotation
		JOINT LeftLeg
		{
			OFFSET 4.081073 -39.591068 13.024000
			CHANNELS 3 Xrotation Yrotation Zrotation
			JOINT LeftFoot
			{
				OFFSET -4.081074 -37.707932 -15.979700
				CHANNELS 3 Xrotation Yrotation Zrotation
				JOINT LeftToeBase
				{
					OFFSET 5.346399 -15.068900 20.645000
					CHANNELS 3 Xrotation Yrotation Zrotation
					JOINT LeftToe_End
					{
						OFFSET 2.754700 0.931300 11.300900
						CHANNELS 3 Xrotation Yrotation Zrotation
						End Site
						{
							OFFSET 0.000000 11.669021 0.000000
						}
					}
				}
			}
		}
	}
	JOINT RightUpLeg
	{
		OFFSET -15.569500 -6.655098 0.678600
		CHANNELS 3 Xrotation Yrotation Zrotation
		JOINT RightLeg
		{
			OFFSET -4.081825 -39.591045 13.023800
			CHANNELS 3 Xrotation Yrotation Zrotation
			JOINT RightFoot
			{
				OFFSET 4.081824 -37.707954 -15.979600
				CHANNELS 3 Xrotation Yrotation Zrotation
				JOINT RightToeBase
				{
					OFFSET -5.346400 -15.068900 20.645000
					CHANNELS 3 Xrotation Yrotation Zrotation
					JOINT RightToe_End
					{
						OFFSET -2.754700 0.931300 11.300900
						CHANNELS 3 Xrotation Yrotation Zrotation
						End Site
						{
							OFFSET 0.000000 11.669021 0.000000
						}
					}
				}
			}
		}
	}
}
MOTION
Frames: 4
Frame Time: 0.033333
5.618381 87.807487 0.525596 -63.025161 -92.807142 -64.139670 5.412563 -2.258957 -7.352620 2.771441 -0.553953 -1.077814 2.777686 -0.510267 -1.087488 -12.273406 6.004519 4.761555 20.231324 76.958016 -25.708550 0.000001 -0.000000 -0.000000 5.516886 -2.188424 12.208350 -41.899369 5.599303 2.227377 0.045096 -12.980518 -0.289987 -49.394180 -3.550607 -0.088081 40.109948 -15.297228 -0.360434 5.639926 28.097740 11.338730 1.088510 40.896321 22.734046 -0.000002 0.000003 0.000003 6.882285 2.840005 -61.140493 8.247961 7.640057 -89.897912 2.146192 8.173410 -41.827809 0.000003 0.000001 -0.000003 -2.345527 4.688862 -62.655265 8.754189 9.897072 -87.051266 1.995350 4.929256 -37.483419 0.000000 -0.000001 0.000002 -9.042475 10.045598 -60.766192 8.524018 9.508883 -66.892892 6.576538 9.896787 -70.385127 -0.000000 -0.000001 0.000001 -17.946788 14.754984 -51.485922 8.868342 8.666998 -84.811989 4.540450 8.852607 -59.152976 -0.000000 -0.000000 0.000000 -2.478560 1.878753 -16.638407 -51.925878 54.163776 47.616609 1.362562 130.520311 0.246817 -70.593366 -0.218324 -24.603887 0.277500 -1.521501 -1.570515 7.169051 -41.689641 -15.773506 -4.517970 11.064485 4.673946 -0.000000 -0.000003 0.000001 6.412846 -12.738385 14.389576 9.941743 -7.465164 101.743229 4.405028 -9.947436 61.138874 -0.000002 0.000001 -0.000001 2.653210 -11.302320 44.730929 9.916095 -9.880674 94.351195 8.462602 -8.530817 83.992250 0.000000 0.000000 0.000002 2.140167 -7.454474 61.765018 9.609247 -8.992476 89.388694 11.175465 -10.370864 97.638148 0.000001 -0.000000 0.000001 -4.886658 -23.798122 68.396169 13.518297 -7.949268 112.864949 8.544480 -10.117954 85.305648 0.000000 0.000000 -0.000000 -28.892301 34.985042 36.985273 24.236230 -10.275066 0.008345 -3.456583 7.108773 -18.219212 -1.836406 -0.000641 -0.000029 -0.000000 -0.000001 -0.000000 -32.584643 -11.994894 -21.696060 15.871603 10.565615 -3.393071 7.234273 13.537639 20.307894 -0.001635 -0.000362 0.000002 0.000000 -0.000000 0.000000 
5.565354 87.933487 0.548924 -63.304700 -92.795490 -64.457171 5.325379 -2.260563 -7.382214 2.778738 -0.554742 -1.042544 2.784998 -0.510551 -1.052427 -12.188348 5.901847 4.831541 20.476736 76.914835 -26.015192 -0.000000 0.000001 -0.000000 5.520085 -2.197686 12.209086 -41.916946 6.020626 2.159879 -0.292914 -13.715977 -0.353063 -49.380680 -3.482577 0.287598 40.109951 -15.297231 -0.360435 5.639929 28.097739 11.338730 1.088509 40.896321 22.734042 -0.000002 -0.000001 0.000001 6.882285 2.840006 -61.140493 8.247961 7.640056 -89.897912 2.146193 8.173413 -41.827809 0.000001 -0.000002 -0.000001 -2.345526 4.688862 -62.655265 8.754188 9.897070 -87.051273 1.995349 4.929257 -37.483416 0.000000 0.000000 0.000002 -9.042476 10.045601 -60.766192 8.524017 9.508879 -66.892899 6.576540 9.896787 -70.385120 0.000001 0.000001 0.000001 -17.946786 14.754984 -51.485925 8.868343 8.666999 -84.811982 4.540450 8.852606 -59.152983 0.000001 0.000001 -0.000005 -2.520202 1.872974 -16.419923 -51.215217 54.242709 47.061052 1.289805 130.598695 0.300850 -70.615823 -0.036935 -24.399056 0.277498 -1.521501 -1.570514 7.169050 -41.689641 -15.773502 -4.517971 11.064480 4.673949 0.000000 0.000003 0.000003 6.412844 -12.738386 14.389574 9.941747 -7.465165 101.743229 4.405026 -9.947436 61.138867 -0.000001 -0.000001 -0.000000 2.653209 -11.302320 44.730929 9.916092 -9.880672 94.351195 8.462598 -8.530814 83.992243 0.000000 0.000000 -0.000001 2.140166 -7.454475 61.765018 9.609250 -8.992475 89.388694 11.175461 -10.370863 97.638148 0.000004 0.000001 -0.000002 -4.886661 -23.798124 68.396169 13.518299 -7.949270 112.864949 8.544479 -10.117954 85.305648 0.000000 0.000001 -0.000001 -28.324863 34.656008 36.484016 24.042522 -9.755195 0.327180 -3.432303 7.160671 -18.565347 -1.836408 -0.000598 0.000004 0.000000 -0.000003 -0.000000 -32.329953 -12.088735 -21.651070 15.517063 10.531966 -3.345369 7.334385 13.554294 20.324700 -0.001629 -0.000328 -0.000019 -0.000000 0.000000 -0.000000 
5.521825 87.951111 0.546354 -64.238257 -92.816656 -65.417373 5.249309 -2.240488 -7.435438 2.755321 -0.514241 -0.975665 2.761610 -0.468577 -0.986325 -12.132532 5.845304 4.701608 20.046409 76.825012 -25.597374 0.000000 -0.000000 -0.000000 5.571647 -2.242729 12.383078 -41.947829 6.033620 1.891489 -0.529109 -13.553837 -0.376762 -49.370626 -3.691844 0.361144 40.109944 -15.297233 -0.360436 5.639933 28.097740 11.338732 1.088507 40.896321 22.734035 0.000000 0.000000 0.000001 6.882283 2.840006 -61.140493 8.247960 7.640051 -89.897912 2.146189 8.173411 -41.827809 -0.000001 -0.000003 0.000002 -2.345527 4.688861 -62.655272 8.754186 9.897070 -87.051273 1.995349 4.929254 -37.483419 -0.000003 -0.000001 0.000003 -9.042476 10.045599 -60.766192 8.524019 9.508883 -66.892899 6.576538 9.896786 -70.385127 -0.000001 -0.000000 0.000003 -17.946790 14.754986 -51.485922 8.868342 8.666999 -84.811989 4.540451 8.852606 -59.152983 -0.000001 -0.000001 0.000001 -2.562759 1.867931 -16.245328 -50.663980 54.243190 46.618531 1.219463 130.672871 0.353008 -70.732613 0.007775 -24.304108 0.277502 -1.521501 -1.570514 7.169051 -41.689641 -15.773504 -4.517974 11.064485 4.673951 -0.000002 -0.000001 0.000003 6.412845 -12.738386 14.389573 9.941747 -7.465164 101.743229 4.405029 -9.947440 61.138874 -0.000000 0.000001 -0.000000 2.653210 -11.302320 44.730929 9.916095 -9.880670 94.351188 8.462600 -8.530812 83.992243 -0.000000 -0.000003 -0.000004 2.140170 -7.454474 61.765025 9.609251 -8.992480 89.388694 11.175458 -10.370861 97.638148 0.000001 -0.000000 0.000002 -4.886659 -23.798122 68.396169 13.518298 -7.949271 112.864949 8.544478 -10.117953 85.305648 -0.000000 -0.000001 -0.000001 -28.299716 34.599437 36.433551 24.020761 -9.716767 0.392094 -3.442366 7.169422 -18.625815 -1.828324 -0.000342 -0.008431 0.000000 0.000001 0.000000 -32.302878 -12.127517 -21.652089 15.485079 10.497802 -3.317819 7.312672 13.548735 20.317572 -0.001646 -0.000376 0.000015 0.000000 0.000000 -0.000000 
5.478096 87.939690 0.537332 -65.228348 -92.877507 -66.450603 5.078433 -2.270708 -7.485817 2.817599 -0.559250 -1.012933 2.823964 -0.513807 -1.023143 -12.425031 5.539442 5.305536 22.317534 76.742291 -27.609851 0.000001 0.000000 0.000000 5.599113 -2.288742 12.459208 -42.059338 6.639034 2.150348 -0.718162 -14.454478 -0.387604 -49.346894 -3.505126 0.757746 40.109948 -15.297228 -0.360434 5.639936 28.097739 11.338734 1.088510 40.896318 22.734039 0.000000 -0.000003 -0.000004 6.882285 2.840005 -61.140486 8.247961 7.640055 -89.897912 2.146192 8.173410 -41.827812 0.000003 -0.000002 0.000002 -2.345526 4.688861 -62.655265 8.754189 9.897069 -87.051273 1.995350 4.929255 -37.483416 -0.000000 0.000001 0.000001 -9.042475 10.045600 -60.766192 8.524017 9.508879 -66.892899 6.576538 9.896785 -70.385127 0.000001 -0.000001 0.000002 -17.946785 14.754984 -51.485922 8.868343 8.667000 -84.811989 4.540452 8.852606 -59.152983 0.000001 0.000000 -0.000001 -2.592640 1.860164 -16.122216 -50.234880 54.084406 46.240917 1.045961 130.886833 0.480665 -70.854736 0.236709 -24.131999 0.277502 -1.521501 -1.570513 7.169047 -41.689641 -15.773504 -4.517969 11.064483 4.673947 -0.000002 0.000002 0.000002 6.412844 -12.738386 14.389576 9.941751 -7.465165 101.743229 4.405026 -9.947440 61.138874 -0.000000 0.000001 -0.000000 2.653210 -11.302319 44.730933 9.916097 -9.880674 94.351195 8.462603 -8.530814 83.992250 0.000002 0.000000 0.000002 2.140169 -7.454476 61.765018 9.609251 -8.992476 89.388701 11.175461 -10.370863 97.638148 0.000001 0.000001 0.000001 -4.886657 -23.798122 68.396169 13.518298 -7.949269 112.864949 8.544479 -10.117954 85.305648 0.000000 0.000001 -0.000001 -28.407404 34.551229 36.491218 24.060081 -9.712905 0.416870 -3.461752 7.176074 -18.661894 -1.818072 -0.000580 0.000021 0.000000 0.000003 -0.000000 -32.356385 -12.163180 -21.638881 15.521040 10.486838 -3.278030 7.276199 13.538264 20.269971 -0.001622 -0.000362 -0.000006 -0.000000 -0.000000 -0.000000 
